<svg xmlns="http://www.w3.org/2000/svg" viewBox="0 0 24 24">
 <mask id="booster-role-cut">
  <rect width="24" height="24" fill="#FFFFFF"/>
  <circle cx="18" cy="18" r="6.4" fill="#000000"/>
 </mask>
 <g mask="url(#booster-role-cut)">
  <g transform="translate(-0.7 -0.7) scale(0.8667)">
   <path fill="#C2C9FF" d="M6 3h12a2 2 0 0 1 2 2v8q0 5-8 8-8-3-8-8V5a2 2 0 0 1 2-2z"/>
   <path fill="#5865F2" d="M6 3h12a2 2 0 0 1 2 2v7H4V5a2 2 0 0 1 2-2z"/>
   <circle cx="12" cy="12" r="2" fill="#FFFFFF"/>
  </g>
 </g>
 <circle cx="18" cy="18" r="5" fill="#EB459E"/>
 <path fill="#FFFFFF" d="M18 14.9 15.7 18 18 21.1 20.3 18z"/>
</svg>
